<svg width="805" height="179" viewBox="0 0 805 179" fill="none" xmlns="http://www.w3.org/2000/svg">
<path d="M804.815 94.7759L805 95.8824V154.898H791.509C782.824 154.345 778.388 150.288 778.388 142.173V98.28C778.388 97.5423 778.388 97.1734 778.204 96.6201C775.247 85.3702 765.083 77.9932 753.625 77.6244C739.58 77.6244 728.492 89.0587 728.122 102.891V154.898H701.695V102.891C701.695 88.8743 690.238 77.8088 676.378 77.8088C665.105 77.8088 654.571 85.5546 651.614 96.6201C651.429 97.1734 651.429 97.5423 651.429 98.28V99.5709C651.429 100.493 651.429 101.6 651.429 102.706V141.804C651.429 148.997 645.516 154.898 638.308 154.898H624.818V101.784C624.633 95.3292 622.046 89.7964 617.426 85.1858C616.502 84.0792 615.393 83.3415 614.284 82.4194C609.11 78.5465 608.37 70.9851 612.99 66.3744H613.175C616.686 62.6859 620.567 59.7351 624.633 57.522C629.807 60.2884 633.873 63.9769 637.939 68.0343C649.027 56.9688 660.3 51.2516 676.378 51.2516C690.607 51.2516 702.989 56.2311 712.968 66.3744C713.708 66.9277 714.262 67.6654 715.001 68.4031C715.556 67.6654 716.11 66.9277 716.849 66.3744C727.013 56.2311 739.21 51.2516 753.625 51.2516C778.758 51.2516 801.489 69.6941 804.815 94.7759Z" fill="white"></path>
<path d="M499.091 103.075C499.091 74.1204 522.007 51.2517 551.021 51.2517C580.035 51.2517 602.766 74.3048 602.766 103.075C602.766 131.845 580.035 154.899 551.021 154.899C522.007 154.899 499.091 132.03 499.091 103.075ZM525.518 103.075C525.518 117.091 536.976 128.341 551.021 128.341C564.881 128.341 576.339 116.907 576.339 103.075C576.339 89.0588 565.066 77.8089 551.021 77.8089C536.976 77.8089 525.518 89.0588 525.518 103.075Z" fill="white"></path>
<path d="M387.965 103.075C387.965 74.1204 410.88 51.2517 439.894 51.2517C468.908 51.2517 491.639 74.3048 491.639 103.075C491.639 131.845 468.908 154.899 439.894 154.899C410.88 154.899 387.965 132.03 387.965 103.075ZM414.392 103.075C414.392 117.091 425.849 128.341 439.894 128.341C453.754 128.341 465.212 116.907 465.212 103.075C465.212 89.0588 453.939 77.8089 439.894 77.8089C425.849 77.8089 414.392 89.0588 414.392 103.075Z" fill="white"></path>
<path d="M368.124 23.9568C374.962 23.9568 380.506 29.674 380.506 36.4977V154.899H367.57C359.438 154.345 355.373 150.657 354.818 143.649V23.9568H368.124Z" fill="white"></path>
<path d="M268.67 103.075C268.67 117.276 279.759 128.341 293.988 128.341C308.218 128.341 319.306 117.276 319.306 103.075C319.306 89.0588 308.033 77.6245 293.988 77.6245C279.943 77.6245 268.67 89.0588 268.67 103.075ZM267.746 37.9731V58.0754C275.508 53.4648 284.379 51.2517 293.988 51.2517C323.002 51.2517 345.918 74.1204 345.918 103.075C345.918 132.03 323.002 154.899 293.988 154.899C266.638 154.899 244.277 134.243 242.244 106.948L242.059 103.075V25.0634H254.995C263.496 25.0634 267.746 29.4896 267.746 37.9731Z" fill="white"></path>
<g clip-path="url(#clip0_384_20665)">
<path d="M98.1739 178.998C129.424 178.998 154.758 175.932 154.758 172.15C154.758 168.368 129.424 165.302 98.1739 165.302C66.9235 165.302 41.5901 168.368 41.5901 172.15C41.5901 175.932 66.9235 178.998 98.1739 178.998Z" fill="white"></path>
<path d="M150.296 134.368C156.018 133.829 172.702 135.226 186.095 115.911C200.058 95.7775 187.445 62.737 179.043 49.6506C170.631 36.5642 145.745 4.00281 100.004 4.00281C54.2627 4.00281 28.1864 31.1938 15.7633 51.6071C3.33032 72.0103 -0.300563 95.3283 9.94193 115.033C20.9146 136.135 44.1002 134.368 44.1002 134.368H150.296Z" fill="white"></path>
<path d="M54.1431 85.5759C54.1431 85.5759 30.5273 96.636 30.6373 108.674C30.7574 121.371 42.5402 127.97 42.5402 127.97L54.1431 85.5859V85.5759Z" fill="#022F36"></path>
<path d="M141.254 84.8073C141.254 84.8073 163.49 93.9408 164.96 107.546C166.32 120.164 153.357 127.191 153.357 127.191L141.254 84.8073Z" fill="#022F36"></path>
<path d="M145.351 91.1358C145.351 91.1358 159.524 109.682 152.313 141.545C146.421 167.598 115.904 169.026 110.882 169.115C105.861 169.205 93.6282 169.485 87.3367 169.115C81.0452 168.746 50.4577 164.813 44.1162 139.559C36.5143 109.233 52.1081 91.3255 52.1081 91.3255C52.1081 91.3255 95.9788 64.5337 145.341 91.1458L145.351 91.1358Z" fill="white"></path>
<path d="M158.428 30.9442C171.392 41.2157 180.604 55.3602 183.655 60.3912C178.743 67.8877 169.241 71.4712 160.329 68.4966C149.726 64.9629 143.995 53.5235 147.536 42.9426C149.396 37.3726 153.467 33.1802 158.428 30.9442Z" fill="#022F36"></path>
<path d="M37.269 30.9442C24.3058 41.2157 15.0936 55.3602 12.0428 60.3912C16.954 67.8877 26.4564 71.4712 35.3685 68.4966C45.9711 64.9629 51.7025 53.5235 48.1616 42.9426C46.3012 37.3726 42.2302 33.1802 37.269 30.9442Z" fill="#022F36"></path>
<path d="M117.369 101.836C121.22 101.456 121.232 106.737 123.059 109.09C125.213 111.865 126.874 111.663 129.648 112.863C132.275 114.003 132.982 117.477 130.491 119.186C129.322 119.988 127.889 120.031 126.664 120.546C125.176 121.177 123.256 123.015 122.42 124.412C120.992 126.819 121.269 130.942 117.314 130.758C114.115 130.605 113.979 126.825 112.786 124.706C110.854 121.275 109.119 121.018 105.773 119.774C103.368 118.879 102.205 116.57 103.675 114.297C104.795 112.557 106.197 112.827 107.858 112.171C109.87 111.375 111.98 109.512 112.983 107.607C114.219 105.254 113.819 102.191 117.363 101.836H117.369Z" fill="#022F36"></path>
<path d="M77.3592 101.836C81.2103 101.456 81.2226 106.737 83.0496 109.09C85.2028 111.865 86.8638 111.663 89.6382 112.863C92.265 114.003 92.9725 117.477 90.481 119.186C89.3122 119.988 87.8788 120.031 86.6546 120.546C85.1659 121.177 83.2465 123.015 82.4099 124.412C80.9826 126.819 81.2595 130.942 77.3039 130.758C74.1049 130.605 73.9696 126.825 72.7761 124.706C70.8445 121.275 69.1097 121.018 65.7631 119.774C63.3578 118.879 62.1951 116.57 63.6654 114.297C64.785 112.557 66.1876 112.827 67.8486 112.171C69.8602 111.375 71.9703 109.512 72.973 107.607C74.2095 105.254 73.8097 102.191 77.3531 101.836H77.3592Z" fill="#022F36"></path>
</g>
<path d="M42.69 138.401C36.6785 138.401 16.7737 136.834 6.40113 116.869C-3.87138 97.125 -1.70085 72.5793 12.3426 49.5308C23.6053 31.0341 49.9817 0 100.004 0C146.855 0 173.242 33.2102 182.414 47.4845C186.725 54.1924 192.256 66.081 194.887 79.357C197.998 95.0787 196.097 108.505 189.396 118.177C176.293 137.073 159.738 137.882 152.667 138.221C151.907 138.261 151.236 138.291 150.686 138.341L150.306 138.361H44.2403C43.9703 138.381 43.4401 138.401 42.69 138.401ZM100.004 7.98561C53.8927 7.98561 29.5768 36.614 19.1842 53.6733C6.63118 74.2862 4.56068 95.9771 13.5029 113.186C23.0752 131.603 42.98 130.435 43.8202 130.375H44.1103L150.126 130.365C150.736 130.315 151.456 130.275 152.277 130.235C159.158 129.906 171.961 129.277 182.814 113.625C189.696 103.693 188.916 90.3473 187.045 80.8943C184.635 68.7062 179.423 57.5962 175.692 51.7867C165.18 35.4262 141.374 7.97563 100.014 7.97563L100.004 7.98561Z" fill="white"></path>
<path d="M96.2291 173.288C92.8183 173.288 89.5375 173.238 87.0969 173.098C72.5134 172.24 46.227 164.414 40.2355 140.527C32.2136 108.554 48.3975 89.4987 49.0977 88.7002L49.4978 88.231L50.0279 87.9116C51.8983 86.7637 96.4492 60.2414 147.252 87.6221L148.012 88.0314L148.532 88.7102C149.152 89.5287 163.756 109.123 156.214 142.413C149.752 170.982 117.374 172.978 110.953 173.088L109.192 173.118C105.891 173.178 100.94 173.268 96.2391 173.268L96.2291 173.288ZM54.749 94.4099C52.4885 97.3246 41.5958 113.086 47.9974 138.58C54.0889 162.887 86.2067 165.043 87.567 165.123C93.0484 165.442 103.451 165.252 109.032 165.152L110.803 165.123C116.184 165.033 143.261 163.416 148.402 140.667C151.893 125.254 150.002 113.276 147.812 105.939C145.961 99.7303 143.571 95.6976 142.59 94.2003C99.1798 71.3215 59.8503 91.565 54.739 94.4099H54.749Z" fill="#022F36"></path>
<defs>
<clipPath id="clip0_384_20665">
<rect width="196.338" height="178.998" fill="white"></rect>
</clipPath>
</defs>
</svg>