<?xml version="1.0"?>
<svg id="Layer_1" data-name="Layer 1" xmlns="http://www.w3.org/2000/svg" xmlns:xlink="http://www.w3.org/1999/xlink" viewBox="0 0 805 180">
  <defs>
    
    <clipPath id="clippath">
      <rect class="cls-1" width="196.29" height="179.32"></rect>
    </clipPath>
  </defs>
  <path class="cls-5" d="M804.62,102.95l.18,1.11v59.12h-13.49c-8.68-.55-13.12-4.62-13.12-12.75v-43.97c0-.74,0-1.11-.18-1.66-2.96-11.27-13.12-18.66-24.57-19.03-14.04,0-25.13,11.46-25.5,25.31v52.1h-26.42v-52.1c0-14.04-11.46-25.13-25.31-25.13-11.27,0-21.8,7.76-24.76,18.84-.18.56-.18.92-.18,1.66v43.6c0,7.21-5.91,13.12-13.12,13.12h-13.49v-53.21c-.18-6.47-2.77-12.01-7.39-16.63-.92-1.11-2.03-1.85-3.14-2.77-5.17-3.88-5.91-11.45-1.29-16.07h.18c3.51-3.7,7.39-6.65,11.46-8.87,5.17,2.77,9.24,6.47,13.3,10.53,11.09-11.09,22.36-16.81,38.43-16.81,14.23,0,26.6,4.99,36.58,15.15.74.55,1.29,1.29,2.03,2.03.55-.74,1.11-1.48,1.85-2.03,10.16-10.16,22.36-15.15,36.77-15.15,25.13,0,47.85,18.48,51.18,43.6Z"></path>
  <path class="cls-5" d="M498.97,111.26c0-29.01,22.91-51.92,51.92-51.92s51.73,23.09,51.73,51.92-22.73,51.92-51.73,51.92-51.92-22.91-51.92-51.92ZM525.39,111.26c0,14.04,11.45,25.31,25.5,25.31s25.31-11.46,25.31-25.31-11.27-25.31-25.31-25.31-25.5,11.27-25.5,25.31Z"></path>
  <path class="cls-5" d="M387.87,111.26c0-29.01,22.91-51.92,51.92-51.92s51.73,23.09,51.73,51.92-22.73,51.92-51.73,51.92-51.92-22.91-51.92-51.92ZM414.29,111.26c0,14.04,11.45,25.31,25.5,25.31s25.31-11.46,25.31-25.31-11.27-25.31-25.31-25.31-25.5,11.27-25.5,25.31Z"></path>
  <path class="cls-5" d="M368.03,32c6.84,0,12.38,5.73,12.38,12.56v118.61h-12.93c-8.13-.55-12.19-4.25-12.75-11.27V32h13.3Z"></path>
  <path class="cls-5" d="M268.61,111.26c0,14.23,11.08,25.31,25.31,25.31s25.31-11.09,25.31-25.31-11.27-25.5-25.31-25.5-25.31,11.46-25.31,25.5ZM267.68,46.04v20.14c7.76-4.62,16.63-6.84,26.24-6.84,29.01,0,51.92,22.91,51.92,51.92s-22.91,51.92-51.92,51.92c-27.34,0-49.7-20.69-51.73-48.04l-.18-3.88V33.11h12.93c8.5,0,12.75,4.43,12.75,12.93Z"></path>
  <g class="cls-4">
    <g>
      <path class="cls-5" d="M98.15,179.32c31.24,0,56.57-3.07,56.57-6.86s-25.33-6.86-56.57-6.86-56.57,3.07-56.57,6.86,25.33,6.86,56.57,6.86Z"></path>
      <path class="cls-3" d="M150.26,134.61c5.72-.54,22.4.86,35.79-18.49,13.96-20.17,1.35-53.27-7.05-66.38-8.41-13.11-33.29-45.73-79.02-45.73S28.18,31.25,15.76,51.7C3.33,72.14-.3,95.5,9.94,115.24c10.97,21.14,34.15,19.37,34.15,19.37h106.17Z"></path>
      <path class="cls-5" d="M194.84,79.5c-2.63-13.3-8.16-25.21-12.47-31.93C173.2,33.27,146.82,0,99.98,0,49.97,0,23.6,31.09,12.34,49.62-1.7,72.71-3.87,97.3,6.4,117.08c10.37,20,30.27,21.57,36.28,21.57.75,0,1.28-.02,1.55-.04h106.04l.38-.02c.55-.05,1.22-.08,1.98-.12,7.07-.34,23.62-1.15,36.72-20.08,6.7-9.69,8.6-23.14,5.49-38.89ZM182.77,113.83c-10.85,15.68-23.65,16.31-30.53,16.64-.82.04-1.54.08-2.15.13H44.1s-.29.01-.29.01c-.84.06-20.74,1.23-30.31-17.22-7.58-14.62-7.24-32.48.69-50.16,5.23,5.6,13.42,7.98,21.17,5.39,10.6-3.54,16.33-15,12.79-25.6-1.8-5.39-5.66-9.49-10.39-11.78,13.7-12.36,33.83-23.24,62.22-23.24h.01c26.03,0,45.11,10.89,58.29,23.05-4.91,2.25-8.93,6.43-10.78,11.97-3.54,10.6,2.19,22.06,12.79,25.6,7.75,2.59,15.95.21,21.18-5.4,2.2,5.22,4.26,11.37,5.53,17.82,1.87,9.47,2.65,22.84-4.23,32.79Z"></path>
      <path class="cls-5" d="M149.58,114.28l-4.14-14.51c.79,1.76,1.61,3.89,2.34,6.36.68,2.28,1.33,5.01,1.8,8.15Z"></path>
      <path class="cls-2" d="M145.32,91.3s14.17,18.58,6.96,50.5c-5.89,26.1-36.4,27.53-41.42,27.62-5.02.09-17.25.37-23.54,0-6.29-.37-36.87-4.31-43.21-29.61-7.6-30.38,7.99-48.32,7.99-48.32,0,0,43.86-26.84,93.21-.18h0Z"></path>
      <path class="cls-5" d="M164.92,107.74c-.92-8.56-10.03-15.35-16.68-19.22l-.26-.33-.76-.41c-42.62-23.02-80.83-8.01-93.13-1.91l.04-.13h0s-23.61,11.07-23.5,23.13c.07,7.37,4.06,12.69,7.39,15.86.1,4.91.76,10.27,2.21,16.05,5.99,23.93,32.27,31.77,46.85,32.63,2.44.14,5.72.19,9.13.19v-.02c4.71,0,9.66-.09,12.96-.15l1.76-.03c6.42-.11,38.79-2.11,45.25-30.73,1.57-6.96,2.18-13.33,2.15-19.04,3.48-3.29,7.37-8.68,6.59-15.89ZM148.37,140.92c-5.14,22.79-32.21,24.41-37.59,24.5l-1.77.03c-5.58.1-15.98.29-21.46-.03-1.36-.08-33.47-2.24-39.56-26.59-6.4-25.54,4.49-41.33,6.75-44.25,5.15-2.87,44.45-23.12,87.82-.21.59.9,1.69,2.73,2.88,5.4.79,1.76,1.61,3.89,2.34,6.36.68,2.28,1.33,5.01,1.8,8.15,1.04,6.98,1.2,15.99-1.21,26.64Z"></path>
      <path class="cls-5" d="M117.34,106.02c3.85-.38,3.86,4.91,5.69,7.27,2.15,2.78,3.81,2.58,6.59,3.78,2.63,1.14,3.33,4.62.84,6.33-1.17.8-2.6.85-3.83,1.36-1.49.63-3.41,2.47-4.24,3.87-1.43,2.41-1.15,6.54-5.1,6.36-3.2-.15-3.33-3.94-4.53-6.06-1.93-3.44-3.67-3.69-7.01-4.94-2.4-.9-3.57-3.21-2.1-5.49,1.12-1.74,2.52-1.47,4.18-2.13,2.01-.8,4.12-2.66,5.12-4.57,1.24-2.36.84-5.43,4.38-5.78h0Z"></path>
      <path class="cls-5" d="M77.34,106.02c3.85-.38,3.86,4.91,5.69,7.27,2.15,2.78,3.81,2.58,6.59,3.78,2.63,1.14,3.33,4.62.84,6.33-1.17.8-2.6.85-3.83,1.36-1.49.63-3.41,2.47-4.24,3.87-1.43,2.41-1.15,6.54-5.1,6.36-3.2-.15-3.33-3.94-4.53-6.06-1.93-3.44-3.67-3.69-7.01-4.94-2.4-.9-3.57-3.21-2.1-5.49,1.12-1.74,2.52-1.47,4.18-2.13,2.01-.8,4.12-2.66,5.12-4.57,1.24-2.36.84-5.43,4.38-5.78h0Z"></path>
    </g>
  </g>
</svg>